<svg xmlns="http://www.w3.org/2000/svg" xmlns:xlink="http://www.w3.org/1999/xlink" viewBox="0 0 293 277.58"><defs><style>.cls-1{fill:none;}.cls-2{fill:#e1e2e5;}.cls-3{fill:#b3d1f4;}.cls-4{fill:#1b2930;}.cls-5{fill:#2c3b44;}.cls-6{fill:#543229;}.cls-7{fill:#6b3b32;}.cls-8{fill:#d37b40;}.cls-9{fill:#e8a24d;}.cls-10{fill:#fff;}.cls-11{fill:#d18275;}.cls-12{fill:#b26156;}.cls-13{fill:#3d2114;}.cls-14{fill:#365650;}.cls-15{fill:#59916f;}.cls-16{fill:#477766;}.cls-17{fill:#a53245;}.cls-18{fill:#e88e64;}.cls-19{clip-path:url(#clip-path);}.cls-20{fill:#fadbb8;}.cls-21{fill:#c16538;}</style><clipPath id="clip-path"><path class="cls-1" d="M88.48,108.55l1,29.7a3.67,3.67,0,0,0,3.67,3.55h22.74a3.67,3.67,0,0,0,3.66-3.55l1-29.7Z"/></clipPath></defs><g id="Objects"><path class="cls-2" d="M57.62,256.3c0,5.85,42.53,10.59,95,10.59s95-4.74,95-10.59-42.53-10.59-95-10.59S57.62,250.45,57.62,256.3Z"/><path class="cls-3" d="M154.56,224.46c-50.73-.72-78.23-.49-92.41-19.16S60.22,170.17,66,155.92s-2.58-28.25-4.3-43.48S64.73,77.55,84.5,68s26,3.69,47.71-21.37S182.93,23.75,202.27,39,233,80.05,227.63,108.75c-3,16-5.37,31.94,3.87,55.77,11.82,30.47,26,61.42-76.94,59.94"/><path class="cls-4" d="M140.3,243.68s3,1.25,2.77,6.65.55,7.34-7.34,7.48-16.77-.28-21.2-.28-2.77-6.37,4.29-7.76,12.89-2.77,14.55-3.6,6.93-2.49,6.93-2.49"/><path class="cls-5" d="M114.53,257.53c2.51,0,6.43.14,10.8.23a14.38,14.38,0,0,0-.1-9.32c-1.94.43-4.11.88-6.41,1.33-7.06,1.39-8.72,7.76-4.29,7.76"/><path class="cls-4" d="M157.68,243.68s-3.05,1.25-2.77,6.65-.56,7.34,7.34,7.48,16.76-.28,21.2-.28,2.77-6.37-4.3-7.76-12.88-2.77-14.55-3.6-6.92-2.49-6.92-2.49"/><path class="cls-5" d="M183.45,257.53c-2.51,0-6.44.14-10.81.23a14.37,14.37,0,0,1,.11-9.32c1.94.43,4.1.88,6.4,1.33,7.07,1.39,8.73,7.76,4.3,7.76"/><polygon class="cls-6" points="169.12 145.31 168.56 247 154.57 246.73 154.01 160.69 145.98 160.69 143.35 246.45 131.02 246.87 132.4 144.75 169.12 145.31"/><path class="cls-7" d="M139,144.85l-6.63-.1-.15,10.82A25.05,25.05,0,0,0,139,144.85"/><path class="cls-7" d="M151.8,153.07c0-1-.07-4.61-.14-8l-4.34-.06c.15,4,.32,8.59.32,9.06,0,.83,4.16,1,4.16-1"/><path class="cls-7" d="M162.48,145.21a21,21,0,0,0,6.59,8.68l.05-8.58Z"/><path class="cls-8" d="M134.9,85.52a1.78,1.78,0,0,0-2.29.7c-1,1.38-11.5,32.42-12.12,32.83S92,118.71,92,118.71l-1,8.79s29.65,3.82,31.94,3.4,10.88-9.42,12-14.9-.06-30.48-.06-30.48"/><path class="cls-9" d="M151.31,81.51c6.39-.23,13,.41,16,1.31s4.15,4.3,4.22,12.89S170,150.09,170,150.09l-38.31-.62s.69-61.11,1-63.25,10.81-4.44,18.7-4.71"/><path class="cls-8" d="M171.54,95.71c-.07-8.59-1.24-12-4.22-12.89a34.81,34.81,0,0,0-6.35-1c.88,2,1,4.39,1.38,6.57a128,128,0,0,1,1.91,14.31c.41,6.81.7,14.13-1,20.79a18.11,18.11,0,0,1-11.14,13,55.1,55.1,0,0,1-20.37,3.82c-.07,5.52-.11,9.17-.11,9.17l38.31.62S171.61,104.3,171.54,95.71Z"/><path class="cls-2" d="M145.49,84.28c0-2.11,2.49-3.81,5.55-3.81s5.54,1.7,5.54,3.81-2.48,3.81-5.54,3.81-5.55-1.71-5.55-3.81"/><path class="cls-10" d="M143.76,89.82s4.57-2.84,5.75-4.23,2.57-.34,3.88,1,3.33,3.26,3.33,3.26a7.28,7.28,0,0,0,3.39-7.07c-.34-5.12-14.27-3.81-16.07-.34a9.79,9.79,0,0,0-.28,7.34"/><path class="cls-11" d="M150.62,86.08h0a3.53,3.53,0,0,1-3.53-3.54V71.18h9.42V81.3c0,3.25-2.64,4.78-5.89,4.78"/><path class="cls-12" d="M156.51,78.57V71.18h-9.42v9.56C150.46,80.76,153.57,80.68,156.51,78.57Z"/><path class="cls-4" d="M127.37,44.85c-1-3.16,2.42-6.4,5.39-7.37a6,6,0,0,1,3.72,11.46c-3,1-8.08-.93-9.11-4.09"/><path class="cls-11" d="M147.81,78.43h0c-7.26,0-13.21-2.46-13.4-9.72l-.76-32H167v25.9c0,10.59-8.58,15.85-19.18,15.85"/><path class="cls-12" d="M134.61,44.38c1.88-.21,3.59-1,5.45-1.23a50.12,50.12,0,0,1,5.75.05,13,13,0,0,0,5.38-1.31,3.84,3.84,0,0,1,3-.07,13.69,13.69,0,0,0,5.83,1c2.57,0,4.7,1,7,1.92V36.68H133.65l.18,7.76C134.09,44.42,134.36,44.41,134.61,44.38Z"/><path class="cls-4" d="M178.2,44.39c2.74-2.21,5-6,3.32-8.84a7.13,7.13,0,0,0-4.89-3c2.1-3.31,3.11-7.46.85-9.91-1.45-1.57-4-2.16-6.61-2,.33-2.15,0-4.16-1.45-5.4-2.93-2.54-9.39-1.07-12.92,1.91-.61-2.34-1.88-4.29-3.92-4.69-3.4-.65-7.74,3.3-9,7.06l-.31-.25a7.15,7.15,0,0,0-10,1.28,6.86,6.86,0,0,0-.1,7.55c-3.19.56-6,3.27-6,6.53a7.38,7.38,0,0,0,7,7.11,6.65,6.65,0,0,0,5.59-3,7.89,7.89,0,0,0,2,2.05,7.13,7.13,0,0,0,10-1.28,6.36,6.36,0,0,0,.9-1.83,5.31,5.31,0,0,0,2.08,3.08,5.38,5.38,0,0,0,7.41-1.12,12,12,0,0,0,4.28,4.18l-.09,9.6,4.43,4.07,1-3.37a5.29,5.29,0,0,0,2.34,0c3-.74,6.72-3.71,5.93-6.94a5.38,5.38,0,0,0-1.83-2.73"/><path class="cls-11" d="M166.07,54.23s-.09-2.86,4-3.41,5.36,4.71,3.6,9.79-6.28,4.06-7.29,2.58"/><path class="cls-13" d="M172.08,54.89a1.3,1.3,0,0,0-.49-.6,1.06,1.06,0,0,0-1.2.06,3.53,3.53,0,0,0-1,1,7.9,7.9,0,0,0-1.23,3.07,2.89,2.89,0,0,0,.15,1.82,1.05,1.05,0,0,0,.91.56,1.5,1.5,0,0,0,.89-.32,2.08,2.08,0,0,0,.82-1.25,2,2,0,0,0-.14-1.14,1.31,1.31,0,0,0-1.13-.87c-.64,0-.64.23-.61.29s.11.1.54.18a.87.87,0,0,1,.62.63,1.45,1.45,0,0,1,.07.78,1.48,1.48,0,0,1-.56.84c-.33.24-.69.28-.84,0a2.44,2.44,0,0,1-.11-1.4,8.19,8.19,0,0,1,1-2.91c.46-.81,1.19-1.45,1.69-1.13A1.44,1.44,0,0,1,172,55c.1.13.17.2.2.19s0-.1-.09-.27"/><path class="cls-13" d="M157.73,46a3.45,3.45,0,0,0-1.65.27,3.59,3.59,0,0,0-1.54,1.13c-.16.24-.1.33,0,.41s.16.14.4,0,.63-.43,1.47-.8a3.17,3.17,0,0,1,1.28-.27,2.36,2.36,0,0,1,1.08.33c.6.38.93.81,1,.72s0-.64-.69-1.22a2.69,2.69,0,0,0-1.37-.59"/><path class="cls-13" d="M141.32,45.67a2.44,2.44,0,0,0-1.72-.08,3.38,3.38,0,0,0-1.21.78c-.58.57-.8,1.07-.72,1.12s.52-.25,1.12-.65a4,4,0,0,1,1-.52,1.82,1.82,0,0,1,1.17.1,5.06,5.06,0,0,1,1.23.95c.2.16.29.13.39.07s.19-.11.09-.39a2.59,2.59,0,0,0-1.38-1.38"/><path class="cls-13" d="M146.3,63.18c.76.49,1.3.65,1.34.57s-.39-.41-1-1a3.76,3.76,0,0,1-.92-1.05c-.19-.29.06-.93.26-1.54.94-2.44,1.89-4.42,1.69-4.51s-1.39,1.72-2.37,4.27a6.5,6.5,0,0,0-.29,1,2.34,2.34,0,0,0,0,.55,1.06,1.06,0,0,0,.17.56,3.47,3.47,0,0,0,1.2,1.15"/><path class="cls-13" d="M144.67,68.58a9.44,9.44,0,0,1-1.65-.72c-.11,0,.35.76,1.48,1.2a10.53,10.53,0,0,0,4.54.6,11.13,11.13,0,0,0,4.36-1.38c1-.57,1.55-1.08,1.49-1.16s-2.51,1.48-5.91,1.81a13.25,13.25,0,0,1-4.31-.35"/><path class="cls-13" d="M156.32,52.2c-.51,0-.92,1-.92,2.22s.41,2.22.92,2.22.93-1,.93-2.22-.41-2.22-.93-2.22"/><path class="cls-13" d="M139.61,51.88c-.51,0-.93,1-.93,2.22s.42,2.21.93,2.21.92-1,.92-2.21-.41-2.22-.92-2.22"/><path class="cls-14" d="M100.57,103.45c-.1-.14.46-.62.92-.73s.5,0,.52.19,0,.29-.35.4-1,.27-1.09.14"/><path class="cls-15" d="M106.63,70a26.21,26.21,0,0,0-2.42-6.31c-1.53-2.49-3.88-2.35-5.34-.69s-.27,4.5,1.94,5.75a27.63,27.63,0,0,0,5.2,2.08Z"/><path class="cls-16" d="M101.44,82.06s.06-7.13,1.31-10.6,6.24-8.24,10.88-3.81-2.84,12.12-11.57,14.55Z"/><path class="cls-15" d="M106.56,93.07a20,20,0,0,0-3.18-11.29c-3.61-5.47-8.53-5.12-11.16-.34s.9,8.93,4.92,11a18,18,0,0,0,8.73,1.66Z"/><path class="cls-16" d="M102.34,109.28s-2.57-10,2.21-17.66,11.16-6.17,13.17-3.81,1.8,8.52-3.61,12.54a23.49,23.49,0,0,0-7.34,8.59Z"/><path class="cls-14" d="M113.7,103c-.08.15-1.15-.31-1.8-.68-.33-.18-.52-.43-.52-.58s.06-.18.14-.21a.36.36,0,0,1,.23,0,4.14,4.14,0,0,1,.47.27c.63.37,1.56,1.06,1.48,1.2"/><path class="cls-14" d="M114.73,101.18c-.09.15-1-.37-1.53-.78s-.47-.53-.35-.65.23-.21.74.18,1.22,1.11,1.14,1.25"/><path class="cls-14" d="M118,98.36c-.07.15-1.15-.21-1.8-.52s-.63-.49-.54-.63.19-.23.81.08,1.61.92,1.53,1.07"/><path class="cls-14" d="M119.61,95.06a10.76,10.76,0,0,1-2.1,0c-.79,0-.84-.1-.86-.27s0-.34.87-.34,2.15.41,2.09.59"/><path class="cls-14" d="M120.4,91.43c0,.16-1.18.52-2,.66s-.86,0-.89-.15,0-.31.79-.45,2-.23,2.08-.06"/><path class="cls-14" d="M119,86.41c.09.12-.88,1.09-1.47,1.73s-.71.59-.84.48-.22-.25.4-.91,1.81-1.45,1.91-1.3"/><path class="cls-14" d="M115,85.22c.17,0,.2.88.14,1.41s-.2.55-.37.53-.29-.06-.23-.6.29-1.36.46-1.34"/><path class="cls-14" d="M111.88,84.39c.15,0,.17,1,.26,1.55s0,.63-.2.67-.33,0-.41-.61.17-1.65.35-1.61"/><path class="cls-14" d="M108.81,85.32c.15,0,.38.88.63,1.38s.17.59,0,.69-.3.15-.58-.45-.26-1.63-.07-1.62"/><path class="cls-14" d="M100.22,96.44c.08-.17,1.32.41,2,1s.55.73.43.84-.23.16-.84-.38-1.62-1.33-1.55-1.47"/><path class="cls-14" d="M100.25,100.4c.06-.14.91,0,1.43-.07s.58.08.61.26,0,.33-.6.35-1.52-.37-1.44-.54"/><path class="cls-14" d="M98.91,94.73c-.14-.09.19-.93.47-1.41s.42-.45.57-.37.26.16,0,.66-.87,1.22-1,1.12"/><path class="cls-14" d="M95.78,94.23c-.07,0,0-.38.25-.77a13.6,13.6,0,0,1,.84-1.12c.48-.62.54-.63.72-.56s.31.22-.24.94a11.62,11.62,0,0,1-1,1c-.31.29-.51.55-.59.51"/><path class="cls-14" d="M92.46,92.16c-.09-.15,1.12-1,1.94-1.48s.93-.37,1-.23.11.29-.7.76a6.74,6.74,0,0,1-2.25,1"/><path class="cls-14" d="M90.56,88.06a15,15,0,0,1,1.86-.24c.7-.12.77,0,.82.13s.06.34-.73.48-2-.18-2-.37"/><path class="cls-14" d="M89,84c.09-.11,1.16.32,1.88.37s.76.16.77.35,0,.34-.85.25a3.45,3.45,0,0,1-1.27-.45C89.19,84.25,89,84,89,84"/><path class="cls-14" d="M90.22,80.59c.07-.15,1.27.2,2,.5s.72.45.66.6-.16.27-.89,0-1.84-.91-1.77-1.07"/><path class="cls-14" d="M92.15,77.12c.13-.12,1.28.87,1.94,1.56s.61.83.49.95-.25.18-.92-.52-1.63-1.88-1.51-2"/><path class="cls-14" d="M95.47,76.27c.16,0,.58,1,.86,1.55s.19.7,0,.78-.3.12-.59-.53-.47-1.76-.3-1.8"/><path class="cls-14" d="M98.65,76.73c.13.06.06.82.12,1.29s-.06.52-.24.56-.32,0-.37-.53.31-1.4.49-1.32"/><path class="cls-14" d="M106.13,82.87c.08.14-.72.82-1.22,1.24s-.61.36-.73.24-.18-.26.35-.71,1.51-.92,1.6-.77"/><path class="cls-14" d="M107.18,85.82c0,.16-1,.51-1.63.64s-.73,0-.76-.16,0-.3.63-.44,1.73-.21,1.76,0"/><path class="cls-14" d="M107.83,81.21c-.13.11-.77-.43-1.11-.82s-.26-.51-.13-.62.25-.18.59.22.78,1.11.65,1.22"/><path class="cls-14" d="M110.61,79.67c-.11.13-1-.44-1.56-.86s-.48-.56-.39-.7.21-.22.76.21,1.3,1.23,1.19,1.35"/><path class="cls-14" d="M112.78,78c-.07.16-1-.18-1.48-.47s-.48-.42-.38-.57.19-.23.69,0,1.24.85,1.17,1"/><path class="cls-14" d="M115.5,75.32c0,.17-1.26.08-2-.07a1.07,1.07,0,0,1-.72-.35.18.18,0,0,1,0-.25c.14-.14.13-.15.82,0s1.94.5,1.91.67"/><path class="cls-14" d="M116.89,70.69c0,.16-1.12.76-1.89,1.07s-.88.2-1,0-.08-.29.71-.6,2.08-.67,2.13-.51"/><path class="cls-14" d="M115.27,68.46c.09.15-.44.75-.83,1.07s-.5.23-.62.11-.19-.23.22-.57,1.14-.75,1.23-.61"/><path class="cls-14" d="M113.39,65.6c.14.1-.22,1-.52,1.51s-.45.49-.59.41-.26-.18.06-.71.91-1.3,1-1.21"/><path class="cls-14" d="M111.07,64.76c.16,0,.18.84.19,1.34s-.11.55-.28.56-.32,0-.33-.56.24-1.37.42-1.34"/><path class="cls-14" d="M107.44,64.36c.15-.08.77.87,1.09,1.52s.21.74.06.81-.29.1-.61-.54-.69-1.72-.54-1.79"/><path class="cls-14" d="M100.63,72.66c.1-.11.94.34,1.49.55s.55.34.49.51-.12.3-.73,0-1.38-1-1.25-1.11"/><path class="cls-14" d="M100.45,76.15c0-.17.75-.42,1.26-.5s.56.06.58.22,0,.31-.5.39-1.31,0-1.34-.11"/><path class="cls-14" d="M105.63,64c.12.12-.3.74-.63,1.08-.16.16-.18.16-.24.17a1.17,1.17,0,0,1-.22,0c-.08,0-.16,0-.2-.11s0-.36.23-.52c.33-.34.94-.77,1.06-.65"/><path class="cls-14" d="M104.47,62c.12.1-.16.82-.29,1.28s-.26.46-.43.42-.31-.09-.15-.62.72-1.19.87-1.08"/><path class="cls-14" d="M102.34,60.28c.17,0,.15,1.09.06,1.74s-.23.68-.4.66-.3-.06-.2-.73.37-1.7.54-1.67"/><path class="cls-14" d="M99,60.74c.11-.15,1,.6,1.3,1.31s.11.78,0,.82-.27,0-.52-.57-.83-1.44-.74-1.56"/><path class="cls-14" d="M97.43,63.08c.07-.16.85,0,1.31.1s.45.29.41.45-.09.29-.58.13-1.21-.53-1.14-.68"/><path class="cls-14" d="M96.84,65.52c0-.16.85-.43,1.43-.52s.63,0,.65.21,0,.3-.57.39-1.47.09-1.51-.08"/><path class="cls-14" d="M97.89,68.22c-.1-.14.51-.76,1-1.08s.54-.24.64-.1.16.26-.28.59-1.21.72-1.31.59"/><path class="cls-14" d="M100.06,70.1c-.12-.12.5-.87,1-1.29s.57-.34.68-.21.18.24-.27.66-1.25,1-1.36.84"/><path class="cls-14" d="M105.85,102.18c.08.08-.35.87-.41,1.44s-.15.58-.3.58-.28,0-.18-.68.78-1.46.89-1.34"/><path class="cls-14" d="M104,100.6c.11,0,.11.56.15.87s-.07.35-.2.38-.26,0-.29-.35.2-1,.34-.9"/><path class="cls-14" d="M105.15,98.57c.12.05.07.56,0,.88s-.13.33-.27.32-.25,0-.21-.39.31-.87.44-.81"/><path class="cls-14" d="M107.6,96.08c.07.11-.26.51-.41.77s-.26.25-.38.19-.23-.12,0-.45.75-.64.82-.51"/><path class="cls-14" d="M106.68,92.06c.07.1-.43.72-.64,1.17s-.3.44-.44.39-.24-.11,0-.62,1-1.07,1.07-.94"/><path class="cls-14" d="M109.69,89.81c.06.11-.24.47-.39.71s-.25.21-.37.15-.22-.13,0-.43.72-.56.79-.43"/><path class="cls-14" d="M112.77,88.54c0,.13-.11.31-.18.4s-.17,0-.29,0-.21-.14-.06-.3.5-.21.53-.07"/><path class="cls-14" d="M110.24,93.45c.07.1-.27.52-.45.79s-.28.24-.4.17-.21-.15,0-.46.76-.62.84-.5"/><path class="cls-14" d="M113.42,91.19c0,.11-.54.49-.82.8s-.37.28-.48.2-.21-.18.14-.54,1.12-.61,1.16-.46"/><path class="cls-14" d="M116,90.57c.06.12-.16.38-.3.53s-.24.08-.34,0-.18-.18,0-.35.58-.29.64-.17"/><path class="cls-14" d="M112.69,94.84c0,.11-.63.58-.92,1s-.38.39-.5.32-.23-.16.13-.63,1.24-.83,1.29-.68"/><path class="cls-14" d="M110.47,96.13c.09.09-.38.83-.74,1.25s-.46.38-.57.3-.18-.16.19-.6,1-1,1.12-1"/><path class="cls-14" d="M108.15,99.12c.1.08-.12.64-.21,1s-.2.37-.33.34-.25-.06-.14-.48.56-1,.68-.86"/><path class="cls-14" d="M110.28,100.88c.07.12-.47.69-.86,1s-.48.25-.57.15-.15-.19.25-.52,1.11-.74,1.18-.63"/><path class="cls-14" d="M114.31,97.2c.09.09-.4.61-.77.89s-.44.2-.51.08-.11-.22.23-.48.95-.59,1-.49"/><path class="cls-14" d="M116.83,93.21c.06.11-.42.51-.69.79s-.36.22-.47.13-.18-.19.14-.49,1-.57,1-.43"/><path class="cls-14" d="M101,89.66c.09-.08.8.51,1.28.83s.45.43.38.55-.16.21-.67-.15-1.11-1.14-1-1.23"/><path class="cls-14" d="M98.09,89.66c.09-.1.63.19.93.42s.25.34.18.45-.15.19-.47-.06-.74-.72-.64-.81"/><path class="cls-14" d="M99.93,87.12c.12-.06.48.38.69.66s.15.36,0,.45-.21.15-.44-.16-.43-.89-.3-.95"/><path class="cls-14" d="M102.65,86.89c.09-.09.6.19.93.33s.32.23.28.37-.1.24-.48.07-.83-.67-.73-.77"/><path class="cls-14" d="M102.77,83.58c.1-.09.52.27.73.56s.13.35,0,.42-.22.11-.42-.14-.42-.74-.33-.84"/><path class="cls-14" d="M99.88,84.26c.12,0,.42.3.62.48s.16.28.08.39-.16.2-.42,0-.42-.79-.28-.83"/><path class="cls-14" d="M97.67,85.36c.12-.08.53.25.74.49s.14.34,0,.43-.19.16-.41-.1-.49-.74-.38-.82"/><path class="cls-14" d="M94.53,87.22c0-.12.82.1,1.28.31s.45.32.39.45-.12.21-.59,0-1.14-.64-1.08-.76"/><path class="cls-14" d="M93.84,83.84c.11,0,.56.46.9.69s.32.33.26.45-.15.23-.56-.06-.74-1-.6-1.08"/><path class="cls-14" d="M95.72,82.33c.1-.07.59.27.94.38s.34.21.32.35-.08.26-.51.1-.88-.75-.75-.83"/><path class="cls-14" d="M97.06,81c.1-.09.45.11.63.29s.12.26,0,.36-.18.16-.36,0-.38-.53-.29-.63"/><path class="cls-14" d="M98.68,80.85c.1-.08.56.24.86.41s.28.27.21.4-.13.22-.47,0-.72-.73-.6-.82"/><path class="cls-14" d="M104.16,76.6c.08.08-.22.77-.23,1.24s-.11.49-.25.51-.28,0-.24-.57.6-1.29.72-1.18"/><path class="cls-14" d="M104.84,74c.1.07-.1.67-.2,1.06s-.21.38-.34.36-.25-.08-.13-.51.55-1,.67-.91"/><path class="cls-14" d="M106.41,77.89c.08.1-.3.61-.51,1s-.31.3-.43.24-.21-.14,0-.52.82-.78.91-.67"/><path class="cls-14" d="M106.5,75.35c.09.08-.18.61-.36.94s-.27.3-.4.24-.22-.12,0-.48.67-.8.78-.7"/><path class="cls-14" d="M108.81,76.09c.11.07-.08.59-.2.91s-.22.31-.35.27-.24-.09-.1-.45.54-.82.65-.73"/><path class="cls-14" d="M109.09,73.69c.07.1-.32.57-.56.86s-.33.25-.45.17-.19-.17.08-.49.85-.66.93-.54"/><path class="cls-14" d="M108,71.94c.1.08-.2.65-.44,1s-.35.27-.45.19-.18-.17.06-.49.72-.75.83-.67"/><path class="cls-14" d="M105.84,71.18c.12.06-.06.65-.25,1s-.28.32-.4.25-.21-.13,0-.47.56-.83.68-.77"/><path class="cls-14" d="M107.56,68c0,.11-.33.51-.5.8s-.26.27-.39.22-.23-.13,0-.49.83-.67.9-.53"/><path class="cls-14" d="M109.55,68.79c.06.11-.34.53-.59.79s-.34.21-.45.12-.17-.19.11-.47.85-.56.93-.44"/><path class="cls-14" d="M110.88,70.36c.05.11-.55.56-.88.89s-.42.28-.53.19-.18-.19.2-.55,1.16-.67,1.21-.53"/><path class="cls-14" d="M112.4,68.74c.07.11-.22.44-.44.59s-.3.08-.38,0-.14-.2.1-.36.66-.32.72-.2"/><path class="cls-14" d="M112.87,72.21c.07.11-.46.54-.83.76s-.45.13-.52,0-.1-.22.27-.43,1-.46,1.08-.34"/><path class="cls-14" d="M111.76,74.46c.07.12-.27.55-.53.77s-.35.15-.45.06-.16-.19.12-.42.78-.52.86-.41"/><path class="cls-14" d="M101.64,67.68c.1-.07.48.22.72.39s.19.27.12.38-.15.21-.43,0-.53-.69-.41-.77"/><path class="cls-14" d="M103.48,66.2c.11-.06.5.29.77.46s.24.27.17.4-.14.22-.46,0-.61-.79-.48-.86"/><path class="cls-14" d="M101.49,65.93c.1-.07.52.19.78.32s.26.22.21.35-.11.24-.44.07-.67-.65-.55-.74"/><path class="cls-14" d="M102.17,63.65c.11,0,.45.33.66.56s.15.32.06.42-.19.17-.43-.1-.42-.82-.29-.88"/><path class="cls-14" d="M100.48,63.8c.09-.1.56.16.81.38s.2.31.11.41-.17.18-.43,0-.58-.65-.49-.75"/><path class="cls-14" d="M99.42,65.75c.08-.1.51,0,.77.1s.27.16.25.29,0,.26-.38.18-.74-.46-.64-.57"/><path class="cls-17" d="M88.48,108.55l1,29.7a3.67,3.67,0,0,0,3.67,3.55h22.74a3.67,3.67,0,0,0,3.66-3.55l1-29.7Z"/><rect class="cls-18" x="85.99" y="105.04" width="36.58" height="5.17"/><g class="cls-19"><path class="cls-20" d="M126.35,120.32c-2.08,0-3.11-1.32-4-2.48s-1.53-2-2.94-2-2.12.9-2.94,2-2,2.48-4,2.48-3.11-1.32-4-2.48-1.53-2-2.94-2-2.12.9-2.94,2-2,2.48-4,2.48-3.12-1.32-4-2.48-1.53-2-2.94-2-2.12.9-2.95,2-2,2.48-4,2.48a.69.69,0,1,1,0-1.38c1.41,0,2.12-.91,2.94-2s2-2.48,4-2.48,3.12,1.32,4,2.48,1.54,2,3,2,2.12-.91,2.94-2,2-2.49,4-2.49,3.12,1.32,4,2.49,1.53,2,2.94,2,2.12-.91,2.94-2,2-2.48,4-2.48,3.12,1.32,4,2.48,1.54,2,2.94,2a.69.69,0,0,1,0,1.38"/><path class="cls-20" d="M125.89,126.51a5.05,5.05,0,0,1-3.91-2,3.51,3.51,0,0,0-5.82,0,4.87,4.87,0,0,1-7.81,0,3.51,3.51,0,0,0-5.82,0,4.88,4.88,0,0,1-7.82,0,3.52,3.52,0,0,0-5.83,0,5,5,0,0,1-3.91,2,.69.69,0,0,1,0-1.38,3.78,3.78,0,0,0,2.92-1.55,4.88,4.88,0,0,1,7.82,0,3.51,3.51,0,0,0,5.82,0,4.87,4.87,0,0,1,7.81,0,3.52,3.52,0,0,0,5.83,0,4.87,4.87,0,0,1,7.81,0,3.74,3.74,0,0,0,2.91,1.55.69.69,0,0,1,0,1.38"/><path class="cls-20" d="M124.81,133.25a4.79,4.79,0,0,1-3.72-1.87,3.3,3.3,0,0,0-5.47,0,4.65,4.65,0,0,1-7.45,0,3.29,3.29,0,0,0-5.46,0,4.66,4.66,0,0,1-7.46,0,3.3,3.3,0,0,0-5.47,0,4.81,4.81,0,0,1-3.73,1.87.69.69,0,0,1,0-1.38,3.47,3.47,0,0,0,2.73-1.45,4.64,4.64,0,0,1,7.46,0,3.3,3.3,0,0,0,5.47,0,4.64,4.64,0,0,1,7.46,0,3.29,3.29,0,0,0,5.46,0,4.63,4.63,0,0,1,7.45,0,3.48,3.48,0,0,0,2.73,1.45.69.69,0,1,1,0,1.38"/></g><path class="cls-11" d="M117.85,118.91s-9-1.45-9.19,1.11,5.84,1.87,8.57,2.08"/><path class="cls-11" d="M117.31,125.5s-6.94.76-8.26-.63c-1.12-1.17-.7-3.05,2.49-3.25s5.77-.21,5.77-.21"/><path class="cls-11" d="M127.07,123.42c0-1.6-1.67-4.44-4.57-6.31s-5.34-2.14-9.5-2.21-4.29,2.63-3.6,3.32,6.65.28,6.93.9.76,6.31,0,6.38-7.34-.91-7.2,1.31,1.45,2.22,4.22,2.43,3.81-.07,4.78.83,6.17,3.25,8.31-.07a7.18,7.18,0,0,0,.63-6.58"/><path class="cls-11" d="M86.68,129.17c-1.52,0-2.15-.21-2-1.87s1.66-1.53,3.26-1.53,4.57-.21,4.78,1.46-1.18,1.94-3,1.94Z"/><path class="cls-11" d="M86.15,125.85c-1.67,0-2.36-.17-2.24-1.85s1.79-1.57,3.54-1.61,5-.3,5.26,1.37-1.25,2-3.22,2l-3.34.07"/><path class="cls-11" d="M86.07,122.59c-1.72,0-2.43-.18-2.3-2s1.84-1.74,3.63-1.78,5.15-.33,5.42,1.53-1.29,2.2-3.32,2.24l-3.43.06"/><path class="cls-11" d="M86.07,119.2c-1.72,0-2.43-.19-2.3-2s1.84-1.75,3.63-1.78,5.15-.33,5.42,1.52-1.29,2.2-3.32,2.24l-3.43.07"/><path class="cls-8" d="M163.16,93.91c-.76,2.49-8,25.49-8.87,25.84s-27.78.83-28.19.83-.83,9.63-.42,10.11,24.46.56,29,.42,8.17.76,12.95-12.68,12.4-32.28-.34-35.61Z"/><path class="cls-21" d="M171.15,84.73c1.7,5.15-.67,11.45-1.76,16.47-1.58,7.25-2.53,16.33-8.42,21.6-5.53,5-13.33,5.92-20.49,5.12-5-.56-10.88-1.77-14.73-5.33-.24,2.85-.36,7.76-.07,8.1.42.49,24.46.56,29,.42s8.17.76,12.95-12.68C171.85,106.65,178.22,90.72,171.15,84.73Z"/></g></svg>